HIERARCHY
ROOT Hips
{
	OFFSET 0.00000 0.00000 0.00000
	CHANNELS 6 Xposition Yposition Zposition Zrotation Yrotation Xrotation 
	JOINT LHipJoint
	{
		OFFSET 0 0 0
		CHANNELS 3 Zrotation Yrotation Xrotation
		JOINT LeftHip
		{
			OFFSET 1.75344 -1.53157 0.77399
			CHANNELS 3 Zrotation Yrotation Xrotation
			JOINT LeftKnee
			{
				OFFSET 2.25415 -6.19323 0.00000
				CHANNELS 3 Zrotation Yrotation Xrotation
				JOINT LeftAnkle
				{
					OFFSET 2.30342 -6.32861 0.00000
					CHANNELS 3 Zrotation Yrotation Xrotation
					JOINT LeftToe
					{
						OFFSET 0.10958 -0.30108 1.49206
						CHANNELS 3 Zrotation Yrotation Xrotation
						End Site
						{
							OFFSET 0.00000 -0.00000 0.77783
						}
					}
				}
			}
		}
	}
	JOINT RHipJoint
	{
		OFFSET 0 0 0
		CHANNELS 3 Zrotation Yrotation Xrotation
		JOINT RightHip
		{
			OFFSET -1.81912 -1.53156 0.77399
			CHANNELS 3 Zrotation Yrotation Xrotation
			JOINT RightKnee
			{
				OFFSET -2.22882 -6.12365 0.00000
				CHANNELS 3 Zrotation Yrotation Xrotation
				JOINT RightAnkle
				{
					OFFSET -2.21943 -6.09785 0.00000
					CHANNELS 3 Zrotation Yrotation Xrotation
					JOINT RightToe
					{
						OFFSET -0.18931 -0.52012 1.59379
						CHANNELS 3 Zrotation Yrotation Xrotation
						End Site
						{
							OFFSET -0.00000 -0.00000 0.84686
						}
					}
				}
			}
		}
	}
	JOINT lowerback
	{
		OFFSET 0 0 0
		CHANNELS 3 Zrotation Yrotation Xrotation
		JOINT Chest
		{
			OFFSET -0.00200 1.66634 -0.14248
			CHANNELS 3 Zrotation Yrotation Xrotation
			JOINT Chest2
			{
				OFFSET -0.00875 1.64542 0.09514
				CHANNELS 3 Zrotation Yrotation Xrotation
				JOINT lowerneck
				{
					OFFSET 0 0 0
					CHANNELS 3 Zrotation Yrotation Xrotation
					JOINT Neck
					{
						OFFSET 0.02257 1.59605 0.00839
						CHANNELS 3 Zrotation Yrotation Xrotation
						JOINT Head
						{
							OFFSET -0.10214 1.57530 -0.23335
							CHANNELS 3 Zrotation Yrotation Xrotation
							End Site
							{
								OFFSET -0.03588 1.60717 -0.08062
							}
						}
					}
				}
				JOINT LeftCollar
				{
					OFFSET 0 0 0
					CHANNELS 3 Zrotation Yrotation Xrotation
					JOINT LeftShoulder
					{
						OFFSET 2.54983 1.10186 0.40078
CHANNELS 3 Zrotation Xrotation Yrotation
						JOINT LeftElbow
						{
OFFSET 0 -4.288400 0.000000
CHANNELS 3 Zrotation Xrotation Yrotation
							JOINT LeftWrist
							{
OFFSET 0 -3.065520 -0.000000
CHANNELS 3 Zrotation Xrotation Yrotation
								JOINT lhand
								{
									OFFSET 0 0 0
CHANNELS 3 Zrotation Xrotation Yrotation
									JOINT LFingers
									{
OFFSET 0 -0.753040 0.000000
CHANNELS 3 Zrotation Xrotation Yrotation
										End Site
										{
OFFSET 0 -0.607120 0.000000
										}
									}
								}
								JOINT LThumb
								{
OFFSET 0 0.000000 0.000000
CHANNELS 3 Zrotation Xrotation Yrotation
									End Site
									{
OFFSET 0 -0.616390 0.616390
									}
								}
							}
						}
					}
				}
				JOINT RightCollar
				{
					OFFSET 0 0 0
					CHANNELS 3 Zrotation Yrotation Xrotation
					JOINT RightShoulder
					{
						OFFSET -2.60909 1.35448 0.21802
CHANNELS 3 Zrotation Xrotation Yrotation
						JOINT RightElbow
						{
OFFSET 0 -4.521720 -0.000000
CHANNELS 3 Zrotation Xrotation Yrotation
							JOINT RightWrist
							{
OFFSET 0 -2.891400 0.000000
CHANNELS 3 Zrotation Xrotation Yrotation
								JOINT rhand
								{
									OFFSET 0 0 0
CHANNELS 3 Zrotation Xrotation Yrotation
									JOINT RFingers
									{
OFFSET 0 -0.680540 0.000000
CHANNELS 3 Zrotation Xrotation Yrotation
										End Site
										{
OFFSET 0 -0.548670 0.000000
										}
									}
								}
								JOINT RThumb
								{
OFFSET 0 0.000000 0.000000
CHANNELS 3 Zrotation Xrotation Yrotation
									End Site
									{
OFFSET 0 -0.557050 0.557050
									}
								}
							}
						}
					}
				}
			}
		}
	}
}
MOTION
Frames: 7
Frame Time: 0.008333333333333333
7.817300 15.161400 41.764300 -179.756000 -2.096300 177.230000 0.000000 0.000000 0.000000 -26.888000 -23.328800 0.481600 2.581400 9.984400 28.926100 1.374700 9.349500 -27.306900 2.509100 -9.854400 -28.506500 0.000000 0.000000 0.000000 29.207000 17.621700 3.145600 -1.954900 -8.771500 25.083000 0.405900 -25.431600 -33.363400 -0.143900 2.444800 -6.736600 0.653700 1.047800 6.622900 -0.462500 1.305700 -5.141300 -1.036500 0.518900 -9.136400 -6.740300 -3.356800 -5.931600 3.881100 -5.129800 16.873600 1.941600 -2.895100 6.362600 0.000000 -0.000000 0.000000 2.948600 15.743500 -24.935700 21.904700 -32.869100 6.534000 8.755300 13.597800 24.336900 0.000000 0.000000 0.000000 -7.125000 0.000000 0.000000 -12.644900 5.884300 -11.574100 0.000000 -0.000000 0.000000 -7.302700 15.585500 57.766100 -18.635900 -28.963800 -4.853300 -5.970200 15.283300 55.532600 0.000000 0.000000 0.000000 7.125000 0.000000 -0.000000 78.147100 74.050100 -61.472900
7.823486 15.157497 41.767041 -179.795487 -2.095894 177.058541 0.000000 0.000000 0.000000 -26.970184 -23.206242 0.655305 2.581835 9.985184 28.928854 1.398926 9.248071 -27.405571 2.579195 -9.979184 -28.910469 0.000000 0.000000 0.000000 29.274364 17.626588 3.362746 -1.962978 -8.788557 25.136029 0.354637 -25.266410 -33.431473 -0.123436 2.263095 -6.233524 0.601299 1.030116 6.731366 -0.451672 1.282299 -5.095586 -0.994267 0.513237 -9.152474 -6.681180 -3.322495 -5.705579 3.939356 -5.106396 16.689929 1.957581 -2.876884 6.263228 0.000000 0.000000 0.000000 2.938478 15.836384 -25.159693 21.892687 -32.855534 6.527555 7.619278 14.450923 25.269806 0.000000 0.000000 0.000000 -7.125000 0.000000 0.000000 -13.349162 5.087526 -12.463724 0.000000 0.000000 0.000000 -7.318859 15.581101 57.743649 -18.580827 -28.894465 -4.826596 -6.315246 15.389028 54.677279 0.000000 0.000000 0.000000 7.125000 0.000000 0.000000 75.072710 74.023390 -58.486084
7.828754 15.153451 41.771422 -179.814406 -1.997483 176.921484 0.000000 0.000000 0.000000 -26.984733 -23.044410 0.745142 2.582330 9.986006 28.931525 1.392961 9.216933 -27.340014 2.709564 -10.209228 -29.656975 0.000000 0.000000 0.000000 29.394435 17.858764 3.640577 -1.960951 -8.784189 25.122599 0.346501 -25.321993 -33.562972 -0.112284 2.160091 -5.948303 0.546357 1.020655 6.778023 -0.332429 1.280001 -5.018845 -0.836889 0.523253 -9.100051 -6.994527 -3.216294 -5.934244 4.107230 -4.973302 17.074768 2.066659 -2.829083 6.429334 0.000000 0.000000 0.000000 2.665478 15.747837 -24.940583 22.022122 -33.001980 6.597859 5.434527 14.739337 25.202945 0.000000 0.000000 0.000000 -7.125000 0.000000 0.000000 -14.658599 5.358457 -13.691819 0.000000 0.000000 0.000000 -7.458341 15.355228 57.861401 -18.328202 -28.575400 -4.705133 -6.542697 15.958399 54.529908 0.000000 0.000000 0.000000 7.125000 0.000000 0.000000 74.484221 74.075838 -57.987010
7.829033 15.162620 41.773751 -179.749235 -1.961561 177.179307 0.000000 0.000000 0.000000 -26.782273 -23.156100 0.448334 2.575835 9.974521 28.894272 1.380348 9.263006 -27.283772 2.788838 -10.344991 -30.101388 0.000000 0.000000 0.000000 29.379375 17.937366 3.326001 -1.956281 -8.774462 25.092357 0.465294 -25.612328 -33.270030 -0.105669 2.092301 -5.760894 0.892500 1.018554 6.451467 -0.410844 1.298616 -5.052682 -1.109998 0.506210 -8.934173 -7.018120 -3.089411 -6.054731 4.316544 -4.852145 17.328778 2.144076 -2.764859 6.528521 0.000000 0.000000 0.000000 2.776187 15.560369 -24.931607 21.974643 -32.948346 6.572046 5.776514 14.366563 24.979441 0.000000 0.000000 0.000000 -7.125000 0.000000 0.000000 -14.453078 5.544604 -13.433497 0.000000 0.000000 0.000000 -7.320245 15.255692 57.625723 -18.309328 -28.551420 -4.696175 -6.349501 15.772887 54.205549 0.000000 0.000000 0.000000 7.125000 0.000000 0.000000 73.442042 73.933416 -56.838532
7.833700 15.155440 41.779708 -179.795836 -1.716303 177.048132 0.000000 0.000000 0.000000 -26.867077 -23.087833 0.527406 2.596260 10.010796 29.011638 1.430258 9.193218 -27.588115 2.527853 -9.887997 -28.615085 0.000000 0.000000 0.000000 29.398686 18.000310 3.487197 -1.947545 -8.755855 25.034576 0.502613 -25.577740 -32.986109 -0.149089 2.488177 -6.856852 0.923228 1.119505 6.556673 -0.504680 1.437735 -4.966460 -1.247639 0.572244 -8.895765 -6.710834 -3.040006 -6.542944 4.183355 -4.837723 18.056367 2.039895 -2.764626 6.834979 0.000000 0.000000 0.000000 2.999130 15.516967 -25.270099 21.992501 -32.968294 6.581829 6.042814 14.571062 24.373464 0.000000 0.000000 0.000000 -7.125000 0.000000 0.000000 -14.291877 6.105931 -13.113141 0.000000 0.000000 0.000000 -6.957209 15.073570 57.112848 -18.282934 -28.517894 -4.683524 -5.860110 15.339924 54.604444 0.000000 0.000000 0.000000 7.125000 0.000000 0.000000 74.983711 73.842927 -58.193421
7.832968 15.155246 41.781541 -179.735745 -1.641542 176.979125 0.000000 0.000000 0.000000 -26.832367 -23.051196 0.591319 2.602816 10.022449 29.049546 1.413055 9.323023 -27.560670 2.575030 -9.972969 -28.889413 0.000000 0.000000 0.000000 29.484956 18.024863 3.616241 -1.944184 -8.748768 25.012487 0.355019 -25.289975 -33.463970 -0.139021 2.402663 -6.619925 1.159844 1.139482 6.542379 -0.574704 1.487340 -4.907863 -1.460459 0.582051 -8.814526 -6.008738 -3.024162 -6.527190 3.614776 -4.842018 18.294148 1.738360 -2.777903 6.878365 0.000000 0.000000 0.000000 3.073457 15.405296 -25.251124 21.805063 -32.755951 6.480100 7.329870 14.636888 24.724852 0.000000 0.000000 0.000000 -7.125000 0.000000 0.000000 -13.516275 5.647221 -12.480223 0.000000 0.000000 0.000000 -6.719103 14.919881 56.915820 -18.207162 -28.421611 -4.647381 -6.639845 16.327166 54.149149 0.000000 0.000000 0.000000 7.125000 0.000000 0.000000 73.137037 74.026769 -56.658034
7.837549 15.149925 41.787916 -179.740907 -1.653103 176.918529 0.000000 0.000000 0.000000 -26.774584 -22.896371 0.487806 2.621297 10.055235 29.155764 1.447629 9.064534 -27.617663 2.576214 -9.975199 -28.896417 0.000000 0.000000 0.000000 29.509212 17.933889 3.634659 -1.935839 -8.731080 24.957725 0.416319 -25.438545 -33.309855 -0.185266 2.771934 -7.644418 1.143128 1.122306 6.540899 -0.549783 1.468574 -4.843396 -1.421224 0.577839 -8.745150 -5.995094 -2.816247 -6.977501 3.839526 -4.659757 19.090772 1.812004 -2.694113 7.209735 0.000000 0.000000 0.000000 3.115209 15.296910 -25.425087 21.819899 -32.772794 6.488154 7.412039 14.196638 25.359530 0.000000 0.000000 0.000000 -7.125000 0.000000 0.000000 -13.475110 5.020787 -12.605834 0.000000 0.000000 0.000000 -6.678475 14.781959 56.893232 -18.302834 -28.543202 -4.693081 -6.741761 16.647281 54.334786 0.000000 0.000000 0.000000 7.125000 0.000000 0.000000 73.737030 74.106186 -57.314823
